<svg width="114" height="138" viewBox="0 0 114 138" fill="none" xmlns="http://www.w3.org/2000/svg">
<path d="M52.9213 12.7872L44.5343 0C25.3838 16.9698 27.9994 41.0085 32.49 56.35C32.6134 55.1461 32.7678 53.9346 32.9529 52.7153C35.2214 38.0297 41.934 24.6792 52.9213 12.7949V12.7872Z" fill="#003148"/>
<path d="M112.424 47.545L76.2914 0.108154C1.7728 50.1225 57.5807 120.139 57.5807 120.139C56.2922 61.4125 112.424 47.545 112.424 47.545ZM63.028 35.6067C63.028 29.0163 68.375 23.6684 74.9643 23.6684C81.5535 23.6684 86.9005 29.0163 86.9005 35.6067C86.9005 42.197 81.5535 47.545 74.9643 47.545C68.375 47.545 63.028 42.197 63.028 35.6067Z" fill="#53C9EB"/>
<path d="M83.6386 76.7539H76.8487C73.477 80.9366 70.4601 85.7906 68.0991 91.4086H83.6386C92.3034 91.4086 99.3478 98.4543 99.3478 107.121C99.3478 115.787 92.3034 122.832 83.6386 122.832H63.0607L63.3539 136.083L53.3389 123.519C53.2694 123.427 53.0765 123.187 52.8065 122.832H30.3537C21.6889 122.832 14.6445 115.787 14.6445 107.121C14.6445 98.4543 21.6889 91.4086 30.3537 91.4086H36.6343C35.1452 86.8478 33.9029 81.9321 33.0928 76.7539H30.3537C13.6183 76.7539 0 90.3745 0 107.121C0 123.867 13.6183 137.487 30.3614 137.487H83.6386C100.382 137.487 114 123.867 114 107.121C114 90.3745 100.382 76.7539 83.6386 76.7539Z" fill="#D9D9D9"/>
<path d="M111.227 137.526C110.842 137.526 110.479 137.449 110.147 137.302C109.808 137.155 109.515 136.955 109.268 136.708C109.021 136.461 108.82 136.16 108.674 135.828C108.527 135.496 108.458 135.133 108.458 134.74C108.458 134.346 108.527 133.999 108.674 133.66C108.82 133.32 109.021 133.027 109.268 132.78C109.522 132.533 109.815 132.332 110.147 132.186C110.479 132.039 110.842 131.969 111.227 131.969C111.613 131.969 111.968 132.039 112.308 132.186C112.647 132.332 112.94 132.533 113.187 132.78C113.442 133.027 113.635 133.32 113.781 133.66C113.928 133.999 113.997 134.354 113.997 134.74C113.997 135.126 113.928 135.488 113.781 135.828C113.635 136.168 113.442 136.461 113.187 136.708C112.933 136.955 112.639 137.155 112.308 137.302C111.968 137.449 111.613 137.526 111.227 137.526ZM111.227 137.163C111.567 137.163 111.876 137.101 112.161 136.978C112.447 136.854 112.693 136.685 112.894 136.469C113.102 136.252 113.257 135.998 113.38 135.705C113.496 135.411 113.558 135.095 113.558 134.748C113.558 134.4 113.496 134.099 113.38 133.806C113.264 133.513 113.102 133.258 112.894 133.042C112.686 132.826 112.447 132.656 112.161 132.533C111.876 132.409 111.567 132.348 111.227 132.348C110.888 132.348 110.579 132.409 110.294 132.533C110.008 132.656 109.754 132.826 109.553 133.042C109.345 133.258 109.183 133.513 109.067 133.806C108.951 134.099 108.89 134.416 108.89 134.748C108.89 135.079 108.951 135.404 109.067 135.705C109.183 135.998 109.345 136.252 109.553 136.469C109.761 136.685 110.008 136.854 110.294 136.978C110.579 137.101 110.896 137.163 111.227 137.163ZM112.632 135.249C112.616 135.419 112.57 135.566 112.493 135.697C112.416 135.828 112.323 135.944 112.2 136.036C112.084 136.129 111.953 136.198 111.806 136.252C111.66 136.299 111.505 136.322 111.343 136.322C111.112 136.322 110.896 136.283 110.711 136.198C110.525 136.114 110.363 136.006 110.224 135.859C110.093 135.72 109.985 135.55 109.916 135.357C109.839 135.164 109.808 134.948 109.808 134.717C109.808 134.485 109.839 134.277 109.908 134.084C109.978 133.891 110.078 133.721 110.209 133.582C110.34 133.443 110.502 133.328 110.687 133.251C110.873 133.173 111.089 133.127 111.32 133.127C111.66 133.127 111.945 133.22 112.184 133.397C112.423 133.575 112.57 133.837 112.624 134.177H112.231C112.192 133.96 112.084 133.783 111.914 133.652C111.744 133.521 111.552 133.451 111.328 133.451C111.143 133.451 110.981 133.482 110.842 133.551C110.703 133.621 110.595 133.706 110.502 133.822C110.41 133.937 110.34 134.069 110.294 134.223C110.248 134.377 110.224 134.539 110.224 134.709C110.224 134.879 110.248 135.033 110.294 135.195C110.34 135.35 110.417 135.488 110.51 135.612C110.602 135.735 110.718 135.828 110.857 135.897C110.996 135.967 111.15 136.006 111.335 136.006C111.444 136.006 111.544 135.99 111.644 135.951C111.744 135.921 111.837 135.867 111.914 135.805C111.991 135.735 112.061 135.658 112.115 135.566C112.169 135.473 112.2 135.365 112.215 135.249H112.609H112.632Z" fill="#003148"/>
</svg>
